<?xml version="1.0" encoding="UTF-8" standalone="no"?><svg xmlns="http://www.w3.org/2000/svg" xmlns:xlink="http://www.w3.org/1999/xlink" contentScriptType="application/ecmascript" contentStyleType="text/css" height="456px" preserveAspectRatio="none" style="width:1678px;height:456px;" version="1.1" viewBox="0 0 1678 456" width="1678px" zoomAndPan="magnify"><defs><filter height="300%" id="ftfw8qbsualg8" width="300%" x="-1" y="-1"><feGaussianBlur result="blurOut" stdDeviation="2.0"/><feColorMatrix in="blurOut" result="blurOut2" type="matrix" values="0 0 0 0 0 0 0 0 0 0 0 0 0 0 0 0 0 0 .4 0"/><feOffset dx="4.0" dy="4.0" in="blurOut2" result="blurOut3"/><feBlend in="SourceGraphic" in2="blurOut3" mode="normal"/></filter></defs><g><!--MD5=[228ac40a6585b7696986380c404f7156]
class analyzer--><rect fill="#FEFECE" filter="url(#ftfw8qbsualg8)" height="73.6094" id="analyzer" style="stroke: #A80036; stroke-width: 1.5;" width="398" x="6" y="262.5"/><ellipse cx="175.25" cy="278.5" fill="#ADD1B2" rx="11" ry="11" style="stroke: #A80036; stroke-width: 1.0;"/><path d="M178.2188,284.1406 Q177.6406,284.4375 177,284.5781 Q176.3594,284.7344 175.6563,284.7344 Q173.1563,284.7344 171.8281,283.0938 Q170.5156,281.4375 170.5156,278.3125 Q170.5156,275.1875 171.8281,273.5313 Q173.1563,271.875 175.6563,271.875 Q176.3594,271.875 177,272.0313 Q177.6563,272.1875 178.2188,272.4844 L178.2188,275.2031 Q177.5938,274.625 177,274.3594 Q176.4063,274.0781 175.7813,274.0781 Q174.4375,274.0781 173.75,275.1563 Q173.0625,276.2188 173.0625,278.3125 Q173.0625,280.4063 173.75,281.4844 Q174.4375,282.5469 175.7813,282.5469 Q176.4063,282.5469 177,282.2813 Q177.5938,282 178.2188,281.4219 L178.2188,284.1406 Z "/><text fill="#000000" font-family="sans-serif" font-size="12" lengthAdjust="spacingAndGlyphs" textLength="51" x="195.75" y="282.6543">analyzer</text><line style="stroke: #A80036; stroke-width: 1.5;" x1="7" x2="403" y1="294.5" y2="294.5"/><line style="stroke: #A80036; stroke-width: 1.5;" x1="7" x2="403" y1="302.5" y2="302.5"/><ellipse cx="17" cy="313.5" fill="#84BE84" rx="3" ry="3" style="stroke: #038048; stroke-width: 1.0;"/><text fill="#000000" font-family="sans-serif" font-size="11" lengthAdjust="spacingAndGlyphs" textLength="372" x="26" y="316.7104">analyze_repository(current_dir: Path, visitor: ModulesVisitor) -&gt; ()</text><ellipse cx="17" cy="326.3047" fill="#84BE84" rx="3" ry="3" style="stroke: #038048; stroke-width: 1.0;"/><text fill="#000000" font-family="sans-serif" font-size="11" lengthAdjust="spacingAndGlyphs" textLength="361" x="26" y="329.5151">analyze_crate_files(crate_dir: Path, visitor: ModulesVisitor) -&gt; ()</text><!--MD5=[bc808a5c46cf18e1daad9f8c369f1194]
class cargo_diagram__main--><rect fill="#FEFECE" filter="url(#ftfw8qbsualg8)" height="60.8047" id="cargo_diagram__main" style="stroke: #A80036; stroke-width: 1.5;" width="167" x="121.5" y="20.5"/><ellipse cx="136.5" cy="36.5" fill="#ADD1B2" rx="11" ry="11" style="stroke: #A80036; stroke-width: 1.0;"/><path d="M139.4688,42.1406 Q138.8906,42.4375 138.25,42.5781 Q137.6094,42.7344 136.9063,42.7344 Q134.4063,42.7344 133.0781,41.0938 Q131.7656,39.4375 131.7656,36.3125 Q131.7656,33.1875 133.0781,31.5313 Q134.4063,29.875 136.9063,29.875 Q137.6094,29.875 138.25,30.0313 Q138.9063,30.1875 139.4688,30.4844 L139.4688,33.2031 Q138.8438,32.625 138.25,32.3594 Q137.6563,32.0781 137.0313,32.0781 Q135.6875,32.0781 135,33.1563 Q134.3125,34.2188 134.3125,36.3125 Q134.3125,38.4063 135,39.4844 Q135.6875,40.5469 137.0313,40.5469 Q137.6563,40.5469 138.25,40.2813 Q138.8438,40 139.4688,39.4219 L139.4688,42.1406 Z "/><text fill="#000000" font-family="sans-serif" font-size="12" lengthAdjust="spacingAndGlyphs" textLength="135" x="150.5" y="40.6543">cargo_diagram__main</text><line style="stroke: #A80036; stroke-width: 1.5;" x1="122.5" x2="287.5" y1="52.5" y2="52.5"/><line style="stroke: #A80036; stroke-width: 1.5;" x1="122.5" x2="287.5" y1="60.5" y2="60.5"/><ellipse cx="132.5" cy="71.5" fill="#84BE84" rx="3" ry="3" style="stroke: #038048; stroke-width: 1.0;"/><text fill="#000000" font-family="sans-serif" font-size="11" lengthAdjust="spacingAndGlyphs" textLength="65" x="141.5" y="74.7104">main() -&gt; ()</text><!--MD5=[a811d76e700acecb214f603e8ee3ae4e]
class cargo_diagram_printers__lib--><rect fill="#FEFECE" filter="url(#ftfw8qbsualg8)" height="48" id="cargo_diagram_printers__lib" style="stroke: #A80036; stroke-width: 1.5;" width="206" x="657" y="27"/><ellipse cx="672" cy="43" fill="#ADD1B2" rx="11" ry="11" style="stroke: #A80036; stroke-width: 1.0;"/><path d="M674.9688,48.6406 Q674.3906,48.9375 673.75,49.0781 Q673.1094,49.2344 672.4063,49.2344 Q669.9063,49.2344 668.5781,47.5938 Q667.2656,45.9375 667.2656,42.8125 Q667.2656,39.6875 668.5781,38.0313 Q669.9063,36.375 672.4063,36.375 Q673.1094,36.375 673.75,36.5313 Q674.4063,36.6875 674.9688,36.9844 L674.9688,39.7031 Q674.3438,39.125 673.75,38.8594 Q673.1563,38.5781 672.5313,38.5781 Q671.1875,38.5781 670.5,39.6563 Q669.8125,40.7188 669.8125,42.8125 Q669.8125,44.9063 670.5,45.9844 Q671.1875,47.0469 672.5313,47.0469 Q673.1563,47.0469 673.75,46.7813 Q674.3438,46.5 674.9688,45.9219 L674.9688,48.6406 Z "/><text fill="#000000" font-family="sans-serif" font-size="12" lengthAdjust="spacingAndGlyphs" textLength="174" x="686" y="47.1543">cargo_diagram_printers__lib</text><line style="stroke: #A80036; stroke-width: 1.5;" x1="658" x2="862" y1="59" y2="59"/><line style="stroke: #A80036; stroke-width: 1.5;" x1="658" x2="862" y1="67" y2="67"/><!--MD5=[20a9be3e631c4638d69d0cb97aba38ce]
class console--><rect fill="#FEFECE" filter="url(#ftfw8qbsualg8)" height="60.8047" id="console" style="stroke: #A80036; stroke-width: 1.5;" width="282" x="439" y="269"/><ellipse cx="551.25" cy="285" fill="#ADD1B2" rx="11" ry="11" style="stroke: #A80036; stroke-width: 1.0;"/><path d="M554.2188,290.6406 Q553.6406,290.9375 553,291.0781 Q552.3594,291.2344 551.6563,291.2344 Q549.1563,291.2344 547.8281,289.5938 Q546.5156,287.9375 546.5156,284.8125 Q546.5156,281.6875 547.8281,280.0313 Q549.1563,278.375 551.6563,278.375 Q552.3594,278.375 553,278.5313 Q553.6563,278.6875 554.2188,278.9844 L554.2188,281.7031 Q553.5938,281.125 553,280.8594 Q552.4063,280.5781 551.7813,280.5781 Q550.4375,280.5781 549.75,281.6563 Q549.0625,282.7188 549.0625,284.8125 Q549.0625,286.9063 549.75,287.9844 Q550.4375,289.0469 551.7813,289.0469 Q552.4063,289.0469 553,288.7813 Q553.5938,288.5 554.2188,287.9219 L554.2188,290.6406 Z "/><text fill="#000000" font-family="sans-serif" font-size="12" lengthAdjust="spacingAndGlyphs" textLength="49" x="571.75" y="289.1543">console</text><line style="stroke: #A80036; stroke-width: 1.5;" x1="440" x2="720" y1="301" y2="301"/><line style="stroke: #A80036; stroke-width: 1.5;" x1="440" x2="720" y1="309" y2="309"/><ellipse cx="450" cy="320" fill="#84BE84" rx="3" ry="3" style="stroke: #038048; stroke-width: 1.0;"/><text fill="#000000" font-family="sans-serif" font-size="11" lengthAdjust="spacingAndGlyphs" textLength="256" x="459" y="323.2104">print_to_console(visitor: ModulesVisitor) -&gt; ()</text><!--MD5=[b9b380406db515a1070762dfb0d7acf0]
class uml--><rect fill="#FEFECE" filter="url(#ftfw8qbsualg8)" height="73.6094" id="uml" style="stroke: #A80036; stroke-width: 1.5;" width="369" x="756.5" y="262.5"/><ellipse cx="925.75" cy="278.5" fill="#ADD1B2" rx="11" ry="11" style="stroke: #A80036; stroke-width: 1.0;"/><path d="M928.7188,284.1406 Q928.1406,284.4375 927.5,284.5781 Q926.8594,284.7344 926.1563,284.7344 Q923.6563,284.7344 922.3281,283.0938 Q921.0156,281.4375 921.0156,278.3125 Q921.0156,275.1875 922.3281,273.5313 Q923.6563,271.875 926.1563,271.875 Q926.8594,271.875 927.5,272.0313 Q928.1563,272.1875 928.7188,272.4844 L928.7188,275.2031 Q928.0938,274.625 927.5,274.3594 Q926.9063,274.0781 926.2813,274.0781 Q924.9375,274.0781 924.25,275.1563 Q923.5625,276.2188 923.5625,278.3125 Q923.5625,280.4063 924.25,281.4844 Q924.9375,282.5469 926.2813,282.5469 Q926.9063,282.5469 927.5,282.2813 Q928.0938,282 928.7188,281.4219 L928.7188,284.1406 Z "/><text fill="#000000" font-family="sans-serif" font-size="12" lengthAdjust="spacingAndGlyphs" textLength="22" x="946.25" y="282.6543">uml</text><line style="stroke: #A80036; stroke-width: 1.5;" x1="757.5" x2="1124.5" y1="294.5" y2="294.5"/><line style="stroke: #A80036; stroke-width: 1.5;" x1="757.5" x2="1124.5" y1="302.5" y2="302.5"/><ellipse cx="767.5" cy="313.5" fill="#84BE84" rx="3" ry="3" style="stroke: #038048; stroke-width: 1.0;"/><text fill="#000000" font-family="sans-serif" font-size="11" lengthAdjust="spacingAndGlyphs" textLength="343" x="776.5" y="316.7104">print_uml(visitor: ModulesVisitor, output_path: PathBuf) -&gt; ()</text><ellipse cx="767.5" cy="326.3047" fill="#84BE84" rx="3" ry="3" style="stroke: #038048; stroke-width: 1.0;"/><text fill="#000000" font-family="sans-serif" font-size="11" lengthAdjust="spacingAndGlyphs" textLength="333" x="776.5" y="329.5151">format_function_signature(function: FunctionInfo) -&gt; String</text><!--MD5=[076c49b0b9ad349616bd8f8d12cbdba1]
class module_visitor--><rect fill="#FEFECE" filter="url(#ftfw8qbsualg8)" height="291.2891" id="module_visitor" style="stroke: #A80036; stroke-width: 1.5;" width="430" x="1161" y="154"/><ellipse cx="1327.25" cy="170" fill="#ADD1B2" rx="11" ry="11" style="stroke: #A80036; stroke-width: 1.0;"/><path d="M1330.2188,175.6406 Q1329.6406,175.9375 1329,176.0781 Q1328.3594,176.2344 1327.6563,176.2344 Q1325.1563,176.2344 1323.8281,174.5938 Q1322.5156,172.9375 1322.5156,169.8125 Q1322.5156,166.6875 1323.8281,165.0313 Q1325.1563,163.375 1327.6563,163.375 Q1328.3594,163.375 1329,163.5313 Q1329.6563,163.6875 1330.2188,163.9844 L1330.2188,166.7031 Q1329.5938,166.125 1329,165.8594 Q1328.4063,165.5781 1327.7813,165.5781 Q1326.4375,165.5781 1325.75,166.6563 Q1325.0625,167.7188 1325.0625,169.8125 Q1325.0625,171.9063 1325.75,172.9844 Q1326.4375,174.0469 1327.7813,174.0469 Q1328.4063,174.0469 1329,173.7813 Q1329.5938,173.5 1330.2188,172.9219 L1330.2188,175.6406 Z "/><text fill="#000000" font-family="sans-serif" font-size="12" lengthAdjust="spacingAndGlyphs" textLength="89" x="1347.75" y="174.1543">module_visitor</text><line style="stroke: #A80036; stroke-width: 1.5;" x1="1162" x2="1590" y1="186" y2="186"/><ellipse cx="1172" cy="197" fill="none" rx="3" ry="3" style="stroke: #038048; stroke-width: 1.0;"/><text fill="#000000" font-family="sans-serif" font-size="11" lengthAdjust="spacingAndGlyphs" textLength="113" x="1181" y="200.2104">FunctionInfo : struct</text><text fill="#000000" font-family="sans-serif" font-size="11" lengthAdjust="spacingAndGlyphs" textLength="87" x="1181" y="213.0151">Derives: Debug</text><text fill="#000000" font-family="sans-serif" font-size="11" lengthAdjust="spacingAndGlyphs" textLength="83" x="1181" y="225.8198">Derives: Clone</text><ellipse cx="1172" cy="235.4141" fill="none" rx="3" ry="3" style="stroke: #038048; stroke-width: 1.0;"/><text fill="#000000" font-family="sans-serif" font-size="11" lengthAdjust="spacingAndGlyphs" textLength="128" x="1181" y="238.6245">ModulesVisitor : struct</text><text fill="#000000" font-family="sans-serif" font-size="11" lengthAdjust="spacingAndGlyphs" textLength="129" x="1181" y="251.4292">Implements: Visit&lt;...&gt;</text><ellipse cx="1172" cy="261.0234" fill="none" rx="3" ry="3" style="stroke: #038048; stroke-width: 1.0;"/><text fill="#000000" font-family="sans-serif" font-size="11" lengthAdjust="spacingAndGlyphs" textLength="106" x="1181" y="264.2339">ModuleInfo : struct</text><text fill="#000000" font-family="sans-serif" font-size="11" lengthAdjust="spacingAndGlyphs" textLength="87" x="1181" y="277.0386">Derives: Debug</text><text fill="#000000" font-family="sans-serif" font-size="11" lengthAdjust="spacingAndGlyphs" textLength="83" x="1181" y="289.8433">Derives: Clone</text><ellipse cx="1172" cy="299.4375" fill="none" rx="3" ry="3" style="stroke: #038048; stroke-width: 1.0;"/><text fill="#000000" font-family="sans-serif" font-size="11" lengthAdjust="spacingAndGlyphs" textLength="126" x="1181" y="302.6479">ParameterInfo : struct</text><text fill="#000000" font-family="sans-serif" font-size="11" lengthAdjust="spacingAndGlyphs" textLength="87" x="1181" y="315.4526">Derives: Debug</text><text fill="#000000" font-family="sans-serif" font-size="11" lengthAdjust="spacingAndGlyphs" textLength="83" x="1181" y="328.2573">Derives: Clone</text><ellipse cx="1172" cy="337.8516" fill="none" rx="3" ry="3" style="stroke: #038048; stroke-width: 1.0;"/><text fill="#000000" font-family="sans-serif" font-size="11" lengthAdjust="spacingAndGlyphs" textLength="100" x="1181" y="341.062">StructInfo : struct</text><text fill="#000000" font-family="sans-serif" font-size="11" lengthAdjust="spacingAndGlyphs" textLength="87" x="1181" y="353.8667">Derives: Debug</text><text fill="#000000" font-family="sans-serif" font-size="11" lengthAdjust="spacingAndGlyphs" textLength="83" x="1181" y="366.6714">Derives: Clone</text><line style="stroke: #A80036; stroke-width: 1.5;" x1="1162" x2="1590" y1="373.2656" y2="373.2656"/><ellipse cx="1172" cy="384.2656" fill="#84BE84" rx="3" ry="3" style="stroke: #038048; stroke-width: 1.0;"/><text fill="#000000" font-family="sans-serif" font-size="11" lengthAdjust="spacingAndGlyphs" textLength="291" x="1181" y="387.4761">extract_derives(attrs: [Attribute]) -&gt; Vec &lt; String &gt;</text><ellipse cx="1172" cy="397.0703" fill="#84BE84" rx="3" ry="3" style="stroke: #038048; stroke-width: 1.0;"/><text fill="#000000" font-family="sans-serif" font-size="11" lengthAdjust="spacingAndGlyphs" textLength="194" x="1181" y="400.2808">get_type_name(ty: Type) -&gt; String</text><ellipse cx="1172" cy="409.875" fill="#84BE84" rx="3" ry="3" style="stroke: #038048; stroke-width: 1.0;"/><text fill="#000000" font-family="sans-serif" font-size="11" lengthAdjust="spacingAndGlyphs" textLength="278" x="1181" y="413.0854">extract_doc_comment(attrs: [Attribute]) -&gt; String</text><ellipse cx="1172" cy="422.6797" fill="#84BE84" rx="3" ry="3" style="stroke: #038048; stroke-width: 1.0;"/><text fill="#000000" font-family="sans-serif" font-size="11" lengthAdjust="spacingAndGlyphs" textLength="404" x="1181" y="425.8901">extract_function_params(inputs:  Comma &gt;) -&gt; Vec &lt; ParameterInfo &gt;</text><ellipse cx="1172" cy="435.4844" fill="#84BE84" rx="3" ry="3" style="stroke: #038048; stroke-width: 1.0;"/><text fill="#000000" font-family="sans-serif" font-size="11" lengthAdjust="spacingAndGlyphs" textLength="194" x="1181" y="438.6948">format_path(path:  Path) -&gt; String</text><!--MD5=[042eb595d05b178bee8e10a51afe1a7b]
class cargo_diagram_visitors__lib--><rect fill="#FEFECE" filter="url(#ftfw8qbsualg8)" height="86.4141" id="cargo_diagram_visitors__lib" style="stroke: #A80036; stroke-width: 1.5;" width="583" x="1084.5" y="8"/><ellipse cx="1287.25" cy="24" fill="#ADD1B2" rx="11" ry="11" style="stroke: #A80036; stroke-width: 1.0;"/><path d="M1290.2188,29.6406 Q1289.6406,29.9375 1289,30.0781 Q1288.3594,30.2344 1287.6563,30.2344 Q1285.1563,30.2344 1283.8281,28.5938 Q1282.5156,26.9375 1282.5156,23.8125 Q1282.5156,20.6875 1283.8281,19.0313 Q1285.1563,17.375 1287.6563,17.375 Q1288.3594,17.375 1289,17.5313 Q1289.6563,17.6875 1290.2188,17.9844 L1290.2188,20.7031 Q1289.5938,20.125 1289,19.8594 Q1288.4063,19.5781 1287.7813,19.5781 Q1286.4375,19.5781 1285.75,20.6563 Q1285.0625,21.7188 1285.0625,23.8125 Q1285.0625,25.9063 1285.75,26.9844 Q1286.4375,28.0469 1287.7813,28.0469 Q1288.4063,28.0469 1289,27.7813 Q1289.5938,27.5 1290.2188,26.9219 L1290.2188,29.6406 Z "/><text fill="#000000" font-family="sans-serif" font-size="12" lengthAdjust="spacingAndGlyphs" textLength="169" x="1307.75" y="28.1543">cargo_diagram_visitors__lib</text><line style="stroke: #A80036; stroke-width: 1.5;" x1="1085.5" x2="1666.5" y1="40" y2="40"/><line style="stroke: #A80036; stroke-width: 1.5;" x1="1085.5" x2="1666.5" y1="48" y2="48"/><ellipse cx="1095.5" cy="59" fill="#84BE84" rx="3" ry="3" style="stroke: #038048; stroke-width: 1.0;"/><text fill="#000000" font-family="sans-serif" font-size="11" lengthAdjust="spacingAndGlyphs" textLength="237" x="1104.5" y="62.2104">parse_rust_file(file_path: StdPath) -&gt;  File</text><ellipse cx="1095.5" cy="71.8047" fill="#84BE84" rx="3" ry="3" style="stroke: #038048; stroke-width: 1.0;"/><text fill="#000000" font-family="sans-serif" font-size="11" lengthAdjust="spacingAndGlyphs" textLength="557" x="1104.5" y="75.0151">analyze_file(file_path: StdPath, base_dir: StdPath, module_name: str, visitor: ModulesVisitor) -&gt; ()</text><ellipse cx="1095.5" cy="84.6094" fill="#84BE84" rx="3" ry="3" style="stroke: #038048; stroke-width: 1.0;"/><text fill="#000000" font-family="sans-serif" font-size="11" lengthAdjust="spacingAndGlyphs" textLength="415" x="1104.5" y="87.8198">find_module_path(module: str, base_dir: StdPath) -&gt; Option &lt; PathBuf &gt;</text><!--MD5=[6ddaeab3f5fc3b83aa3ec6f901fcb0de]
link cargo_diagram__main to analyzer--><path d="M205,81.73 C205,125.47 205,207.32 205,256.97 " fill="none" id="cargo_diagram__main-&gt;analyzer" style="stroke: #A80036; stroke-width: 1.0;"/><polygon fill="#A80036" points="205,262.26,209,253.26,205,257.26,201,253.26,205,262.26" style="stroke: #A80036; stroke-width: 1.0;"/><!--MD5=[bfd40dc3cfb13d6b29ebbdecc7ed7480]
link cargo_diagram_printers__lib to console--><path d="M743.07,75.19 C711.14,118.9 641.95,213.67 604.78,264.56 " fill="none" id="cargo_diagram_printers__lib-&gt;console" style="stroke: #A80036; stroke-width: 1.0;"/><polygon fill="#A80036" points="601.73,268.74,610.2719,263.8373,604.6819,264.7044,603.8148,259.1143,601.73,268.74" style="stroke: #A80036; stroke-width: 1.0;"/><!--MD5=[bc1e02952795528e141d297796395465]
link cargo_diagram_printers__lib to uml--><path d="M777.03,75.19 C807.76,117.04 872.84,205.67 911.12,257.81 " fill="none" id="cargo_diagram_printers__lib-&gt;uml" style="stroke: #A80036; stroke-width: 1.0;"/><polygon fill="#A80036" points="914.29,262.12,912.1668,252.5027,911.3221,258.0962,905.7286,257.2514,914.29,262.12" style="stroke: #A80036; stroke-width: 1.0;"/><!--MD5=[0c06e62d76a4843138925dee266fb198]
link cargo_diagram_visitors__lib to module_visitor--><path d="M1376,94.09 C1376,109.88 1376,128.85 1376,148.8 " fill="none" id="cargo_diagram_visitors__lib-&gt;module_visitor" style="stroke: #A80036; stroke-width: 1.0;"/><polygon fill="#A80036" points="1376,153.89,1380,144.89,1376,148.89,1372,144.89,1376,153.89" style="stroke: #A80036; stroke-width: 1.0;"/><!--MD5=[aeb6bcbf0bd3bfc5bfeb3495d77a0e65]
@startuml
class analyzer {
  + analyze_repository(current_dir: Path, visitor: ModulesVisitor) -> ()
  + analyze_crate_files(crate_dir: Path, visitor: ModulesVisitor) -> ()
}
class cargo_diagram__main {
  + main() -> ()
}
cargo_diagram__main - -> analyzer
class cargo_diagram_printers__lib {
}
cargo_diagram_printers__lib - -> console
cargo_diagram_printers__lib - -> uml
class module_visitor {
  + FunctionInfo : struct
    Derives: Debug
    Derives: Clone
  + ModulesVisitor : struct
    Implements: Visit<...>
  + ModuleInfo : struct
    Derives: Debug
    Derives: Clone
  + ParameterInfo : struct
    Derives: Debug
    Derives: Clone
  + StructInfo : struct
    Derives: Debug
    Derives: Clone
  + extract_derives(attrs: [Attribute]) -> Vec < String >
  + get_type_name(ty: Type) -> String
  + extract_doc_comment(attrs: [Attribute]) -> String
  + extract_function_params(inputs:  Comma >) -> Vec < ParameterInfo >
  + format_path(path:  Path) -> String
}
class console {
  + print_to_console(visitor: ModulesVisitor) -> ()
}
class cargo_diagram_visitors__lib {
  + parse_rust_file(file_path: StdPath) ->  File
  + analyze_file(file_path: StdPath, base_dir: StdPath, module_name: str, visitor: ModulesVisitor) -> ()
  + find_module_path(module: str, base_dir: StdPath) -> Option < PathBuf >
}
cargo_diagram_visitors__lib - -> module_visitor
class uml {
  + print_uml(visitor: ModulesVisitor, output_path: PathBuf) -> ()
  + format_function_signature(function: FunctionInfo) -> String
}
@enduml

PlantUML version 1.2020.02(Sun Mar 01 11:22:07 CET 2020)
(GPL source distribution)
Java Runtime: OpenJDK Runtime Environment
JVM: OpenJDK 64-Bit Server VM
Java Version: 11.0.24+8-post-Ubuntu-1ubuntu322.04
Operating System: Linux
Default Encoding: UTF-8
Language: de
Country: DE
--></g></svg>