<?xml version="1.0" encoding="UTF-8" standalone="no"?><svg xmlns="http://www.w3.org/2000/svg" xmlns:xlink="http://www.w3.org/1999/xlink" contentScriptType="application/ecmascript" contentStyleType="text/css" height="315px" preserveAspectRatio="none" style="width:711px;height:315px;" version="1.1" viewBox="0 0 711 315" width="711px" zoomAndPan="magnify"><defs><filter height="300%" id="f1wf7dm6fhikli" width="300%" x="-1" y="-1"><feGaussianBlur result="blurOut" stdDeviation="2.0"/><feColorMatrix in="blurOut" result="blurOut2" type="matrix" values="0 0 0 0 0 0 0 0 0 0 0 0 0 0 0 0 0 0 .4 0"/><feOffset dx="4.0" dy="4.0" in="blurOut2" result="blurOut3"/><feBlend in="SourceGraphic" in2="blurOut3" mode="normal"/></filter></defs><g><!--MD5=[228ac40a6585b7696986380c404f7156]
class analyzer--><rect fill="#FEFECE" filter="url(#f1wf7dm6fhikli)" height="73.6094" id="analyzer" style="stroke: #A80036; stroke-width: 1.5;" width="141" x="19" y="192"/><ellipse cx="60.1" cy="208" fill="#ADD1B2" rx="11" ry="11" style="stroke: #A80036; stroke-width: 1.0;"/><path d="M63.0688,213.6406 Q62.4906,213.9375 61.85,214.0781 Q61.2094,214.2344 60.5063,214.2344 Q58.0063,214.2344 56.6781,212.5938 Q55.3656,210.9375 55.3656,207.8125 Q55.3656,204.6875 56.6781,203.0313 Q58.0063,201.375 60.5063,201.375 Q61.2094,201.375 61.85,201.5313 Q62.5063,201.6875 63.0688,201.9844 L63.0688,204.7031 Q62.4438,204.125 61.85,203.8594 Q61.2563,203.5781 60.6313,203.5781 Q59.2875,203.5781 58.6,204.6563 Q57.9125,205.7188 57.9125,207.8125 Q57.9125,209.9063 58.6,210.9844 Q59.2875,212.0469 60.6313,212.0469 Q61.2563,212.0469 61.85,211.7813 Q62.4438,211.5 63.0688,210.9219 L63.0688,213.6406 Z "/><text fill="#000000" font-family="sans-serif" font-size="12" lengthAdjust="spacingAndGlyphs" textLength="51" x="79.9" y="212.1543">analyzer</text><line style="stroke: #A80036; stroke-width: 1.5;" x1="20" x2="159" y1="224" y2="224"/><line style="stroke: #A80036; stroke-width: 1.5;" x1="20" x2="159" y1="232" y2="232"/><ellipse cx="30" cy="243" fill="#84BE84" rx="3" ry="3" style="stroke: #038048; stroke-width: 1.0;"/><text fill="#000000" font-family="sans-serif" font-size="11" lengthAdjust="spacingAndGlyphs" textLength="114" x="39" y="246.2104">analyze_repository()</text><ellipse cx="30" cy="255.8047" fill="#84BE84" rx="3" ry="3" style="stroke: #038048; stroke-width: 1.0;"/><text fill="#000000" font-family="sans-serif" font-size="11" lengthAdjust="spacingAndGlyphs" textLength="115" x="39" y="259.0151">analyze_crate_files()</text><!--MD5=[20a9be3e631c4638d69d0cb97aba38ce]
class console--><rect fill="#FEFECE" filter="url(#f1wf7dm6fhikli)" height="60.8047" id="console" style="stroke: #A80036; stroke-width: 1.5;" width="127" x="195" y="198.5"/><ellipse cx="230.7" cy="214.5" fill="#ADD1B2" rx="11" ry="11" style="stroke: #A80036; stroke-width: 1.0;"/><path d="M233.6688,220.1406 Q233.0906,220.4375 232.45,220.5781 Q231.8094,220.7344 231.1063,220.7344 Q228.6063,220.7344 227.2781,219.0938 Q225.9656,217.4375 225.9656,214.3125 Q225.9656,211.1875 227.2781,209.5313 Q228.6063,207.875 231.1063,207.875 Q231.8094,207.875 232.45,208.0313 Q233.1063,208.1875 233.6688,208.4844 L233.6688,211.2031 Q233.0438,210.625 232.45,210.3594 Q231.8563,210.0781 231.2313,210.0781 Q229.8875,210.0781 229.2,211.1563 Q228.5125,212.2188 228.5125,214.3125 Q228.5125,216.4063 229.2,217.4844 Q229.8875,218.5469 231.2313,218.5469 Q231.8563,218.5469 232.45,218.2813 Q233.0438,218 233.6688,217.4219 L233.6688,220.1406 Z "/><text fill="#000000" font-family="sans-serif" font-size="12" lengthAdjust="spacingAndGlyphs" textLength="49" x="249.3" y="218.6543">console</text><line style="stroke: #A80036; stroke-width: 1.5;" x1="196" x2="321" y1="230.5" y2="230.5"/><line style="stroke: #A80036; stroke-width: 1.5;" x1="196" x2="321" y1="238.5" y2="238.5"/><ellipse cx="206" cy="249.5" fill="#84BE84" rx="3" ry="3" style="stroke: #038048; stroke-width: 1.0;"/><text fill="#000000" font-family="sans-serif" font-size="11" lengthAdjust="spacingAndGlyphs" textLength="101" x="215" y="252.7104">print_to_console()</text><!--MD5=[042eb595d05b178bee8e10a51afe1a7b]
class cargo_diagram_visitors__lib--><rect fill="#FEFECE" filter="url(#f1wf7dm6fhikli)" height="86.4141" id="cargo_diagram_visitors__lib" style="stroke: #A80036; stroke-width: 1.5;" width="201" x="499" y="8"/><ellipse cx="514" cy="24" fill="#ADD1B2" rx="11" ry="11" style="stroke: #A80036; stroke-width: 1.0;"/><path d="M516.9688,29.6406 Q516.3906,29.9375 515.75,30.0781 Q515.1094,30.2344 514.4063,30.2344 Q511.9063,30.2344 510.5781,28.5938 Q509.2656,26.9375 509.2656,23.8125 Q509.2656,20.6875 510.5781,19.0313 Q511.9063,17.375 514.4063,17.375 Q515.1094,17.375 515.75,17.5313 Q516.4063,17.6875 516.9688,17.9844 L516.9688,20.7031 Q516.3438,20.125 515.75,19.8594 Q515.1563,19.5781 514.5313,19.5781 Q513.1875,19.5781 512.5,20.6563 Q511.8125,21.7188 511.8125,23.8125 Q511.8125,25.9063 512.5,26.9844 Q513.1875,28.0469 514.5313,28.0469 Q515.1563,28.0469 515.75,27.7813 Q516.3438,27.5 516.9688,26.9219 L516.9688,29.6406 Z "/><text fill="#000000" font-family="sans-serif" font-size="12" lengthAdjust="spacingAndGlyphs" textLength="169" x="528" y="28.1543">cargo_diagram_visitors__lib</text><line style="stroke: #A80036; stroke-width: 1.5;" x1="500" x2="699" y1="40" y2="40"/><line style="stroke: #A80036; stroke-width: 1.5;" x1="500" x2="699" y1="48" y2="48"/><ellipse cx="510" cy="59" fill="#84BE84" rx="3" ry="3" style="stroke: #038048; stroke-width: 1.0;"/><text fill="#000000" font-family="sans-serif" font-size="11" lengthAdjust="spacingAndGlyphs" textLength="93" x="519" y="62.2104">parse_rust_file()</text><ellipse cx="510" cy="71.8047" fill="#84BE84" rx="3" ry="3" style="stroke: #038048; stroke-width: 1.0;"/><text fill="#000000" font-family="sans-serif" font-size="11" lengthAdjust="spacingAndGlyphs" textLength="73" x="519" y="75.0151">analyze_file()</text><ellipse cx="510" cy="84.6094" fill="#84BE84" rx="3" ry="3" style="stroke: #038048; stroke-width: 1.0;"/><text fill="#000000" font-family="sans-serif" font-size="11" lengthAdjust="spacingAndGlyphs" textLength="108" x="519" y="87.8198">find_module_path()</text><!--MD5=[076c49b0b9ad349616bd8f8d12cbdba1]
class module_visitor--><rect fill="#FEFECE" filter="url(#f1wf7dm6fhikli)" height="150.4375" id="module_visitor" style="stroke: #A80036; stroke-width: 1.5;" width="155" x="522" y="154"/><ellipse cx="552.3" cy="170" fill="#ADD1B2" rx="11" ry="11" style="stroke: #A80036; stroke-width: 1.0;"/><path d="M555.2688,175.6406 Q554.6906,175.9375 554.05,176.0781 Q553.4094,176.2344 552.7063,176.2344 Q550.2063,176.2344 548.8781,174.5938 Q547.5656,172.9375 547.5656,169.8125 Q547.5656,166.6875 548.8781,165.0313 Q550.2063,163.375 552.7063,163.375 Q553.4094,163.375 554.05,163.5313 Q554.7063,163.6875 555.2688,163.9844 L555.2688,166.7031 Q554.6438,166.125 554.05,165.8594 Q553.4563,165.5781 552.8313,165.5781 Q551.4875,165.5781 550.8,166.6563 Q550.1125,167.7188 550.1125,169.8125 Q550.1125,171.9063 550.8,172.9844 Q551.4875,174.0469 552.8313,174.0469 Q553.4563,174.0469 554.05,173.7813 Q554.6438,173.5 555.2688,172.9219 L555.2688,175.6406 Z "/><text fill="#000000" font-family="sans-serif" font-size="12" lengthAdjust="spacingAndGlyphs" textLength="89" x="569.7" y="174.1543">module_visitor</text><line style="stroke: #A80036; stroke-width: 1.5;" x1="523" x2="676" y1="186" y2="186"/><ellipse cx="533" cy="197" fill="none" rx="3" ry="3" style="stroke: #038048; stroke-width: 1.0;"/><text fill="#000000" font-family="sans-serif" font-size="11" lengthAdjust="spacingAndGlyphs" textLength="106" x="542" y="200.2104">ModuleInfo : struct</text><text fill="#000000" font-family="sans-serif" font-size="11" lengthAdjust="spacingAndGlyphs" textLength="87" x="542" y="213.0151">Derives: Debug</text><ellipse cx="533" cy="222.6094" fill="none" rx="3" ry="3" style="stroke: #038048; stroke-width: 1.0;"/><text fill="#000000" font-family="sans-serif" font-size="11" lengthAdjust="spacingAndGlyphs" textLength="100" x="542" y="225.8198">StructInfo : struct</text><text fill="#000000" font-family="sans-serif" font-size="11" lengthAdjust="spacingAndGlyphs" textLength="87" x="542" y="238.6245">Derives: Debug</text><ellipse cx="533" cy="248.2188" fill="none" rx="3" ry="3" style="stroke: #038048; stroke-width: 1.0;"/><text fill="#000000" font-family="sans-serif" font-size="11" lengthAdjust="spacingAndGlyphs" textLength="128" x="542" y="251.4292">ModulesVisitor : struct</text><text fill="#000000" font-family="sans-serif" font-size="11" lengthAdjust="spacingAndGlyphs" textLength="129" x="542" y="264.2339">Implements: Visit&lt;...&gt;</text><line style="stroke: #A80036; stroke-width: 1.5;" x1="523" x2="676" y1="270.8281" y2="270.8281"/><ellipse cx="533" cy="281.8281" fill="#84BE84" rx="3" ry="3" style="stroke: #038048; stroke-width: 1.0;"/><text fill="#000000" font-family="sans-serif" font-size="11" lengthAdjust="spacingAndGlyphs" textLength="95" x="542" y="285.0386">extract_derives()</text><ellipse cx="533" cy="294.6328" fill="#84BE84" rx="3" ry="3" style="stroke: #038048; stroke-width: 1.0;"/><text fill="#000000" font-family="sans-serif" font-size="11" lengthAdjust="spacingAndGlyphs" textLength="77" x="542" y="297.8433">format_path()</text><!--MD5=[a811d76e700acecb214f603e8ee3ae4e]
class cargo_diagram_printers__lib--><rect fill="#FEFECE" filter="url(#f1wf7dm6fhikli)" height="48" id="cargo_diagram_printers__lib" style="stroke: #A80036; stroke-width: 1.5;" width="206" x="254.5" y="27"/><ellipse cx="269.5" cy="43" fill="#ADD1B2" rx="11" ry="11" style="stroke: #A80036; stroke-width: 1.0;"/><path d="M272.4688,48.6406 Q271.8906,48.9375 271.25,49.0781 Q270.6094,49.2344 269.9063,49.2344 Q267.4063,49.2344 266.0781,47.5938 Q264.7656,45.9375 264.7656,42.8125 Q264.7656,39.6875 266.0781,38.0313 Q267.4063,36.375 269.9063,36.375 Q270.6094,36.375 271.25,36.5313 Q271.9063,36.6875 272.4688,36.9844 L272.4688,39.7031 Q271.8438,39.125 271.25,38.8594 Q270.6563,38.5781 270.0313,38.5781 Q268.6875,38.5781 268,39.6563 Q267.3125,40.7188 267.3125,42.8125 Q267.3125,44.9063 268,45.9844 Q268.6875,47.0469 270.0313,47.0469 Q270.6563,47.0469 271.25,46.7813 Q271.8438,46.5 272.4688,45.9219 L272.4688,48.6406 Z "/><text fill="#000000" font-family="sans-serif" font-size="12" lengthAdjust="spacingAndGlyphs" textLength="174" x="283.5" y="47.1543">cargo_diagram_printers__lib</text><line style="stroke: #A80036; stroke-width: 1.5;" x1="255.5" x2="459.5" y1="59" y2="59"/><line style="stroke: #A80036; stroke-width: 1.5;" x1="255.5" x2="459.5" y1="67" y2="67"/><!--MD5=[b9b380406db515a1070762dfb0d7acf0]
class uml--><rect fill="#FEFECE" filter="url(#f1wf7dm6fhikli)" height="60.8047" id="uml" style="stroke: #A80036; stroke-width: 1.5;" width="87" x="357" y="198.5"/><ellipse cx="386.85" cy="214.5" fill="#ADD1B2" rx="11" ry="11" style="stroke: #A80036; stroke-width: 1.0;"/><path d="M389.8188,220.1406 Q389.2406,220.4375 388.6,220.5781 Q387.9594,220.7344 387.2563,220.7344 Q384.7563,220.7344 383.4281,219.0938 Q382.1156,217.4375 382.1156,214.3125 Q382.1156,211.1875 383.4281,209.5313 Q384.7563,207.875 387.2563,207.875 Q387.9594,207.875 388.6,208.0313 Q389.2563,208.1875 389.8188,208.4844 L389.8188,211.2031 Q389.1938,210.625 388.6,210.3594 Q388.0063,210.0781 387.3813,210.0781 Q386.0375,210.0781 385.35,211.1563 Q384.6625,212.2188 384.6625,214.3125 Q384.6625,216.4063 385.35,217.4844 Q386.0375,218.5469 387.3813,218.5469 Q388.0063,218.5469 388.6,218.2813 Q389.1938,218 389.8188,217.4219 L389.8188,220.1406 Z "/><text fill="#000000" font-family="sans-serif" font-size="12" lengthAdjust="spacingAndGlyphs" textLength="22" x="404.15" y="218.6543">uml</text><line style="stroke: #A80036; stroke-width: 1.5;" x1="358" x2="443" y1="230.5" y2="230.5"/><line style="stroke: #A80036; stroke-width: 1.5;" x1="358" x2="443" y1="238.5" y2="238.5"/><ellipse cx="368" cy="249.5" fill="#84BE84" rx="3" ry="3" style="stroke: #038048; stroke-width: 1.0;"/><text fill="#000000" font-family="sans-serif" font-size="11" lengthAdjust="spacingAndGlyphs" textLength="61" x="377" y="252.7104">print_uml()</text><!--MD5=[bc808a5c46cf18e1daad9f8c369f1194]
class cargo_diagram__main--><rect fill="#FEFECE" filter="url(#f1wf7dm6fhikli)" height="60.8047" id="cargo_diagram__main" style="stroke: #A80036; stroke-width: 1.5;" width="167" x="6" y="20.5"/><ellipse cx="21" cy="36.5" fill="#ADD1B2" rx="11" ry="11" style="stroke: #A80036; stroke-width: 1.0;"/><path d="M23.9688,42.1406 Q23.3906,42.4375 22.75,42.5781 Q22.1094,42.7344 21.4063,42.7344 Q18.9063,42.7344 17.5781,41.0938 Q16.2656,39.4375 16.2656,36.3125 Q16.2656,33.1875 17.5781,31.5313 Q18.9063,29.875 21.4063,29.875 Q22.1094,29.875 22.75,30.0313 Q23.4063,30.1875 23.9688,30.4844 L23.9688,33.2031 Q23.3438,32.625 22.75,32.3594 Q22.1563,32.0781 21.5313,32.0781 Q20.1875,32.0781 19.5,33.1563 Q18.8125,34.2188 18.8125,36.3125 Q18.8125,38.4063 19.5,39.4844 Q20.1875,40.5469 21.5313,40.5469 Q22.1563,40.5469 22.75,40.2813 Q23.3438,40 23.9688,39.4219 L23.9688,42.1406 Z "/><text fill="#000000" font-family="sans-serif" font-size="12" lengthAdjust="spacingAndGlyphs" textLength="135" x="35" y="40.6543">cargo_diagram__main</text><line style="stroke: #A80036; stroke-width: 1.5;" x1="7" x2="172" y1="52.5" y2="52.5"/><line style="stroke: #A80036; stroke-width: 1.5;" x1="7" x2="172" y1="60.5" y2="60.5"/><ellipse cx="17" cy="71.5" fill="#84BE84" rx="3" ry="3" style="stroke: #038048; stroke-width: 1.0;"/><text fill="#000000" font-family="sans-serif" font-size="11" lengthAdjust="spacingAndGlyphs" textLength="36" x="26" y="74.7104">main()</text><!--MD5=[0c06e62d76a4843138925dee266fb198]
link cargo_diagram_visitors__lib to module_visitor--><path d="M599.5,94.16 C599.5,110.52 599.5,129.81 599.5,148.58 " fill="none" id="cargo_diagram_visitors__lib-&gt;module_visitor" style="stroke: #A80036; stroke-width: 1.0;"/><polygon fill="#A80036" points="599.5,153.85,603.5,144.85,599.5,148.85,595.5,144.85,599.5,153.85" style="stroke: #A80036; stroke-width: 1.0;"/><!--MD5=[bfd40dc3cfb13d6b29ebbdecc7ed7480]
link cargo_diagram_printers__lib to console--><path d="M344.56,75.01 C327.55,105.24 297.54,158.59 277.84,193.62 " fill="none" id="cargo_diagram_printers__lib-&gt;console" style="stroke: #A80036; stroke-width: 1.0;"/><polygon fill="#A80036" points="275.25,198.22,283.1404,192.3258,277.6952,193.8587,276.1623,188.4135,275.25,198.22" style="stroke: #A80036; stroke-width: 1.0;"/><!--MD5=[bc1e02952795528e141d297796395465]
link cargo_diagram_printers__lib to uml--><path d="M363.12,75.01 C370.48,105.12 383.43,158.15 391.99,193.19 " fill="none" id="cargo_diagram_printers__lib-&gt;uml" style="stroke: #A80036; stroke-width: 1.0;"/><polygon fill="#A80036" points="393.22,198.22,394.9715,188.5281,392.0342,193.3626,387.1997,190.4254,393.22,198.22" style="stroke: #A80036; stroke-width: 1.0;"/><!--MD5=[6ddaeab3f5fc3b83aa3ec6f901fcb0de]
link cargo_diagram__main to analyzer--><path d="M89.5,81.86 C89.5,110.71 89.5,154.67 89.5,186.84 " fill="none" id="cargo_diagram__main-&gt;analyzer" style="stroke: #A80036; stroke-width: 1.0;"/><polygon fill="#A80036" points="89.5,191.9,93.5,182.9,89.5,186.9,85.5,182.9,89.5,191.9" style="stroke: #A80036; stroke-width: 1.0;"/><!--MD5=[bdc981e521d6d6d0391be5b4de7f6ddb]
@startuml
class analyzer {
  + analyze_repository()
  + analyze_crate_files()
}
class console {
  + print_to_console()
}
class cargo_diagram_visitors__lib {
  + parse_rust_file()
  + analyze_file()
  + find_module_path()
}
cargo_diagram_visitors__lib - -> module_visitor
class cargo_diagram_printers__lib {
}
cargo_diagram_printers__lib - -> console
cargo_diagram_printers__lib - -> uml
class cargo_diagram__main {
  + main()
}
cargo_diagram__main - -> analyzer
class uml {
  + print_uml()
}
class module_visitor {
  + ModuleInfo : struct
    Derives: Debug
  + StructInfo : struct
    Derives: Debug
  + ModulesVisitor : struct
    Implements: Visit<...>
  + extract_derives()
  + format_path()
}
@enduml

PlantUML version 1.2020.02(Sun Mar 01 11:22:07 CET 2020)
(GPL source distribution)
Java Runtime: OpenJDK Runtime Environment
JVM: OpenJDK 64-Bit Server VM
Java Version: 11.0.24+8-post-Ubuntu-1ubuntu322.04
Operating System: Linux
Default Encoding: UTF-8
Language: de
Country: DE
--></g></svg>